<svg width="119" height="44" viewBox="0 0 119 44" fill="none" xmlns="http://www.w3.org/2000/svg">
<g filter="url(#filter0_di_2_59)">
<path d="M20.7578 6.49299L11.4766 35.519H4L16.6797 0.50501H21.4375L20.7578 6.49299ZM28.4688 35.519L19.1641 6.49299L18.4141 0.50501H23.2188L35.9688 35.519H28.4688ZM28.0469 22.485V28.1363H10.0234V22.485H28.0469Z" fill="white"/>
<path d="M68.0922 23.9038H75.1C74.9594 26.2605 74.3266 28.3527 73.2016 30.1804C72.0922 32.008 70.5375 33.4349 68.5375 34.4609C66.5531 35.487 64.1625 36 61.3656 36C59.1781 36 57.2172 35.6152 55.4828 34.8457C53.7484 34.0601 52.2641 32.9379 51.0297 31.479C49.8109 30.02 48.8812 28.2565 48.2406 26.1884C47.6 24.1202 47.2797 21.8036 47.2797 19.2385V16.8096C47.2797 14.2445 47.6078 11.9279 48.2641 9.85972C48.9359 7.77555 49.8891 6.00401 51.1234 4.54509C52.3734 3.08617 53.8656 1.96393 55.6 1.17836C57.3344 0.392786 59.2719 0 61.4125 0C64.2562 0 66.6547 0.529058 68.6078 1.58717C70.5766 2.64529 72.1 4.10421 73.1781 5.96393C74.2719 7.82365 74.9281 9.93988 75.1469 12.3126H68.1156C68.0375 10.9018 67.7641 9.70741 67.2953 8.72946C66.8266 7.73547 66.1156 6.98998 65.1625 6.49299C64.225 5.97996 62.975 5.72345 61.4125 5.72345C60.2406 5.72345 59.2172 5.9479 58.3422 6.39679C57.4672 6.84569 56.7328 7.52705 56.1391 8.44088C55.5453 9.35471 55.1 10.509 54.8031 11.9038C54.5219 13.2826 54.3812 14.9018 54.3812 16.7615V19.2385C54.3812 21.0501 54.5141 22.6453 54.7797 24.024C55.0453 25.3868 55.4516 26.5411 55.9984 27.487C56.5609 28.4168 57.2797 29.1222 58.1547 29.6032C59.0453 30.0681 60.1156 30.3006 61.3656 30.3006C62.8344 30.3006 64.0453 30.0601 64.9984 29.5792C65.9516 29.0982 66.6781 28.3848 67.1781 27.4389C67.6937 26.493 67.9984 25.3146 68.0922 23.9038Z" fill="white"/>
<path d="M103.872 0.50501V35.519H96.8641V0.50501H103.872ZM114.372 0.50501V6.15631H86.5281V0.50501H114.372Z" fill="white"/>
</g>
<defs>
<filter id="filter0_di_2_59" x="0" y="0" width="118.372" height="44" filterUnits="userSpaceOnUse" color-interpolation-filters="sRGB">
<feFlood flood-opacity="0" result="BackgroundImageFix"/>
<feColorMatrix in="SourceAlpha" type="matrix" values="0 0 0 0 0 0 0 0 0 0 0 0 0 0 0 0 0 0 127 0" result="hardAlpha"/>
<feOffset dy="4"/>
<feGaussianBlur stdDeviation="2"/>
<feComposite in2="hardAlpha" operator="out"/>
<feColorMatrix type="matrix" values="0 0 0 0 1 0 0 0 0 1 0 0 0 0 1 0 0 0 0.25 0"/>
<feBlend mode="normal" in2="BackgroundImageFix" result="effect1_dropShadow_2_59"/>
<feBlend mode="normal" in="SourceGraphic" in2="effect1_dropShadow_2_59" result="shape"/>
<feColorMatrix in="SourceAlpha" type="matrix" values="0 0 0 0 0 0 0 0 0 0 0 0 0 0 0 0 0 0 127 0" result="hardAlpha"/>
<feOffset dx="4" dy="6"/>
<feGaussianBlur stdDeviation="8"/>
<feComposite in2="hardAlpha" operator="arithmetic" k2="-1" k3="1"/>
<feColorMatrix type="matrix" values="0 0 0 0 0.0705882 0 0 0 0 0.0705882 0 0 0 0 0.0705882 0 0 0 0.25 0"/>
<feBlend mode="normal" in2="shape" result="effect2_innerShadow_2_59"/>
</filter>
</defs>
</svg>
